# xmcd
#
# Track frame offsets: 
#        150
#        20736
#        39969
#        56844
#        73423
#        87034
#        112716
#        129924
#        149234
#        164017
#        183591
#        202145
#
# Disc length: 3030 seconds
#
# Revision: 0
# Processed by: cddbd v1.5.2PL0 Copyright (c) Steve Scherf et al.
# Submitted via: ExactAudioCopy v1.3
#
DISCID=b60bd40c
DTITLE=Anthony Gomes - Peace, Love and Loud Guitars
DYEAR=2018
DGENRE=Blues
TTITLE0=Come Down
TTITLE1=White Trash Princess
TTITLE2=Blues In The First Degree
TTITLE3=Nasty Good
TTITLE4=The Whiskey Made Me Do It
TTITLE5=You Are Amazing
TTITLE6=Peace, Love and Loud Guitars
TTITLE7=Stealin' From The Devil
TTITLE8=Your Mama Wants To Do Me (And Your Daddy Wants To Do Me In)
TTITLE9=The Only Woman I've Ever Loved
TTITLE10=Hard Road Easy
TTITLE11=Take Me Back Home
EXTD=
EXTT0=
EXTT1=
EXTT2=
EXTT3=
EXTT4=
EXTT5=
EXTT6=
EXTT7=
EXTT8=
EXTT9=
EXTT10=
EXTT11=
PLAYORDER=
